<?xml version="1.0" encoding="UTF-8" standalone="no"?>
<svg width="55px" height="70px" viewBox="0 0 55 70" version="1.1" xmlns="http://www.w3.org/2000/svg" xmlns:xlink="http://www.w3.org/1999/xlink">
    <!-- Generator: Sketch 40.1 (33804) - http://www.bohemiancoding.com/sketch -->
    <title>Group 11</title>
    <desc>Created with Sketch.</desc>
    <defs></defs>
    <g id="Wireframes" stroke="none" stroke-width="1" fill="none" fill-rule="evenodd">
        <g id="Home-Page-Version-7-Copy-8" transform="translate(-204.000000, -15.000000)">
            <g id="Group-11" transform="translate(204.000000, 15.000000)">
                <g id="Group-8-Copy">
                    <g id="Group-2-Copy">
                        <g id="Logo">
                            <g id="Page-1">
                                <path d="M12.8464286,8.72448982e-05 L12.8464286,11.341924 L12.8464286,8.72448982e-05 Z" id="Fill-4" fill="#FFFFFF"></path>
                                <path d="M12.4098333,8.72448982e-05 L12.4098333,11.341924 L12.4098333,8.72448982e-05 Z" id="Fill-5" fill="#000000"></path>
                                <path d="M17.0659762,8.72448982e-05 L17.0659762,11.341924 L17.0659762,8.72448982e-05 Z" id="Fill-8" fill="#000000"></path>
                                <g id="Group-10" transform="translate(10.185185, 0.000000)">
                                    <polygon id="Fill-1" fill="#A4E8D5" points="2.56421252 11.1965158 13.3314083 11.1965158 16.0863554 56.5638628 0.236170194 56.5638628"></polygon>
                                    <polygon id="Stroke-2" stroke="#424651" points="13.3314083 11.1965158 16.0863554 56.5638628 0.236170194 56.5638628 2.56421252 11.1965158"></polygon>
                                    <path d="M5.61976808,8.72448982e-05 L5.61976808,11.341924" id="Stroke-6" stroke="#424651"></path>
                                    <path d="M10.2758527,8.72448982e-05 L10.2758527,11.341924" id="Stroke-9" stroke="#424651"></path>
                                </g>
                                <path d="M42.6745,56.4185709 L42.6745,25.8828566 L42.6745,56.4185709 Z" id="Fill-11" fill="#FFFFFF"></path>
                                <path d="M26.0870238,56.4185709 L26.0870238,25.8828566 L26.0870238,56.4185709 Z" id="Fill-14" fill="#000000"></path>
                                <path d="M0.000785714285,56.8760827 L54.7525582,56.3760827 L0.000785714285,56.8760827 Z" id="Fill-17" fill="#000000"></path>
                                <path d="M54.7525873,56.3762281 L0.000814814815,56.8762281" id="Stroke-18" stroke="#424651"></path>
                                <path d="M34.526381,56.4185709 L34.526381,32.8624485 L34.526381,56.4185709 Z" id="Fill-20" fill="#000000"></path>
                                <g id="Group-9" transform="translate(25.123457, 17.642857)">
                                    <polygon id="Rectangle" fill="#A4E8D5" transform="translate(5.415123, 23.410714) scale(-1, 1) translate(-5.415123, -23.410714) " points="1.01851852 15.6071429 9.8117284 8.14285714 9.8117284 38.6785714 1.01851852 38.6785714"></polygon>
                                    <polygon id="Rectangle" fill="#A4E8D5" points="10.1851852 15.6071429 18.3333333 8.14285714 18.3333333 38.6785714 10.1851852 38.6785714"></polygon>
                                    <path d="M18.2299974,38.7755974 L18.2299974,8.23988316" id="Stroke-12" stroke="#424651"></path>
                                    <path d="M1.3037037,8.23988316 L1.05246914,38.7755974" id="Stroke-15" stroke="#424651"></path>
                                    <path d="M9.94753086,15.219475 L9.94753086,38.7755974" id="Stroke-21" stroke="#424651"></path>
                                    <polygon id="Fill-23" fill="#A4E8D5" points="1.52769048 8.22554592 9.91853704 15.7911327 18.1149921 8.22554592 9.82134127 0.526765306"></polygon>
                                    <polygon id="Stroke-24" stroke="#424651" points="9.91853704 15.7911327 18.1149921 8.22554592 9.82134127 0.526765306 1.52769048 8.22554592"></polygon>
                                </g>
                                <g id="Group-29" transform="translate(17.654321, 46.142857)">
                                    <path d="M2.70244974,9.8473898 C3.98083598,9.84070102 4.31927513,9.06451224 6.34670899,8.09376735 C7.50461905,7.53947143 8.25948677,7.17827755 9.31612698,7.14977755 C10.7976349,7.10993571 12.0245132,7.74769592 12.6903333,8.09376735 C13.9282698,8.73763469 14.047873,9.16833367 15.254672,9.57751224 C15.9909153,9.82732347 16.8272646,10.1111602 17.5492487,9.71245102 C18.2636667,9.31810408 18.4696984,8.47502755 18.6288783,7.82418061 C18.7048307,7.51417041 18.9853598,6.29884898 18.4938519,4.99162959 C17.9016561,3.41627755 16.5522646,2.67556837 15.1196455,1.88920102 C13.8316561,1.18222653 11.9340106,0.140813265 9.31612698,0.270808163 C7.21797884,0.374629592 5.79932804,1.17437449 4.05213228,2.15907857 C1.92080952,3.36044082 1.16390476,4.40534388 0.812952381,4.99162959 C0.188746032,6.03333367 0.138402116,6.80603265 0.138111111,7.14977755 C0.137529101,7.55662959 0.136365079,8.49800204 0.812952381,9.17298673 C1.49506878,9.85378776 2.45043915,9.84884388 2.70244974,9.8473898" id="Fill-25" fill="#A4E8D5"></path>
                                    <path d="M2.70244974,9.8473898 C3.98083598,9.84070102 4.31927513,9.06451224 6.34670899,8.09376735 C7.50461905,7.53947143 8.25948677,7.17827755 9.31612698,7.14977755 C10.7976349,7.10993571 12.0245132,7.74769592 12.6903333,8.09376735 C13.9282698,8.73763469 14.047873,9.16833367 15.254672,9.57751224 C15.9909153,9.82732347 16.8272646,10.1111602 17.5492487,9.71245102 C18.2636667,9.31810408 18.4696984,8.47502755 18.6288783,7.82418061 C18.7048307,7.51417041 18.9853598,6.29884898 18.4938519,4.99162959 C17.9016561,3.41627755 16.5522646,2.67556837 15.1196455,1.88920102 C13.8316561,1.18222653 11.9340106,0.140813265 9.31612698,0.270808163 C7.21797884,0.374629592 5.79932804,1.17437449 4.05213228,2.15907857 C1.92080952,3.36044082 1.16390476,4.40534388 0.812952381,4.99162959 C0.188746032,6.03333367 0.138402116,6.80603265 0.138111111,7.14977755 C0.137529101,7.55662959 0.136365079,8.49800204 0.812952381,9.17298673 C1.49506878,9.85378776 2.45043915,9.84884388 2.70244974,9.8473898 L2.70244974,9.8473898 Z" id="Stroke-27" stroke="#424651"></path>
                                </g>
                            </g>
                            <path d="M23.842,65.652 L23.614,65.652 C23.41,65.652 23.29,65.76 23.29,65.964 L23.29,67.104 C23.29,67.968 22.966,68.316 22.174,68.316 C21.382,68.316 21.058,67.968 21.058,67.104 L21.058,62.496 C21.058,61.632 21.382,61.284 22.174,61.284 C22.966,61.284 23.29,61.632 23.29,62.496 L23.29,63.432 C23.29,63.636 23.41,63.744 23.614,63.744 L23.842,63.744 C24.046,63.744 24.154,63.636 24.154,63.432 L24.154,62.28 C24.154,61.104 23.458,60.504 22.186,60.504 L22.162,60.504 C20.89,60.504 20.194,61.104 20.194,62.28 L20.194,67.32 C20.194,68.556 20.89,69.096 22.162,69.096 L22.186,69.096 C23.458,69.096 24.154,68.544 24.154,67.32 L24.154,65.964 C24.154,65.76 24.046,65.652 23.842,65.652 L23.842,65.652 Z M29.3686667,63.216 L29.3686667,62.232 C29.3686667,61.056 28.6006667,60.504 27.4486667,60.504 L27.4246667,60.504 C26.2726667,60.504 25.5046667,61.056 25.5046667,62.232 L25.5046667,63.24 C25.5046667,63.972 25.8406667,64.32 26.5726667,64.728 L27.7486667,65.376 C28.3246667,65.7 28.5406667,65.916 28.5406667,66.48 L28.5406667,67.152 C28.5406667,67.944 28.2166667,68.328 27.4486667,68.328 C26.6806667,68.328 26.3566667,67.944 26.3566667,67.152 L26.3566667,66.264 C26.3566667,66.06 26.2366667,65.952 26.0446667,65.952 L25.8166667,65.952 C25.6126667,65.952 25.5046667,66.06 25.5046667,66.264 L25.5046667,67.344 C25.5046667,68.58 26.1646667,69.096 27.4366667,69.096 L27.4606667,69.096 C28.7326667,69.096 29.3926667,68.568 29.3926667,67.344 L29.3926667,66.228 C29.3926667,65.52 28.9606667,65.076 28.3126667,64.716 L27.1126667,64.056 C26.5486667,63.744 26.3566667,63.576 26.3566667,63.012 L26.3566667,62.424 C26.3566667,61.62 26.6806667,61.272 27.4366667,61.272 C28.1926667,61.272 28.5166667,61.62 28.5166667,62.424 L28.5166667,63.216 C28.5166667,63.42 28.6366667,63.528 28.8286667,63.528 L29.0566667,63.528 C29.2606667,63.528 29.3686667,63.42 29.3686667,63.216 L29.3686667,63.216 Z M34.4153333,65.652 L34.1873333,65.652 C33.9833333,65.652 33.8633333,65.76 33.8633333,65.964 L33.8633333,67.104 C33.8633333,67.968 33.5393333,68.316 32.7473333,68.316 C31.9553333,68.316 31.6313333,67.968 31.6313333,67.104 L31.6313333,62.496 C31.6313333,61.632 31.9553333,61.284 32.7473333,61.284 C33.5393333,61.284 33.8633333,61.632 33.8633333,62.496 L33.8633333,63.432 C33.8633333,63.636 33.9833333,63.744 34.1873333,63.744 L34.4153333,63.744 C34.6193333,63.744 34.7273333,63.636 34.7273333,63.432 L34.7273333,62.28 C34.7273333,61.104 34.0313333,60.504 32.7593333,60.504 L32.7353333,60.504 C31.4633333,60.504 30.7673333,61.104 30.7673333,62.28 L30.7673333,67.32 C30.7673333,68.556 31.4633333,69.096 32.7353333,69.096 L32.7593333,69.096 C34.0313333,69.096 34.7273333,68.544 34.7273333,67.32 L34.7273333,65.964 C34.7273333,65.76 34.6193333,65.652 34.4153333,65.652 L34.4153333,65.652 Z" id="csc" fill="#424651"></path>
                        </g>
                    </g>
                </g>
            </g>
        </g>
    </g>
</svg>